<?xml version="1.0" encoding="UTF-8"?>
<svg id="Layer_1" data-name="Layer 1" xmlns="http://www.w3.org/2000/svg" xmlns:xlink="http://www.w3.org/1999/xlink" viewBox="0 0 592.42 200.09">
  <defs>
    <style>
      .cls-1 {
        fill: #231f20;
      }

      .cls-2 {
        fill: url(#spark_Gradient_Swatch);
      }
    </style>
    <linearGradient id="spark_Gradient_Swatch" data-name="spark Gradient Swatch" x1="547.36" y1="157.19" x2="547.36" y2="54.84" gradientUnits="userSpaceOnUse">
      <stop offset=".02" stop-color="#e9612b"/>
      <stop offset="1" stop-color="#9b3b92"/>
    </linearGradient>
  </defs>
  <path class="cls-1" d="M59.87,155.9c-5.76,0-11.42-.5-16.98-1.51-5.56-1-10.92-2.48-16.07-4.42-5.16-1.94-10.01-4.22-14.56-6.83-4.55-2.61-8.64-5.52-12.26-8.74l29.13-31.74c3.35,3.62,7.8,6.83,13.36,9.64,5.56,2.81,11.28,4.22,17.18,4.22,2.68,0,5.12-.47,7.33-1.41,2.21-.94,3.31-2.68,3.31-5.22,0-1.34-.37-2.48-1.11-3.42-.74-.94-2.04-1.91-3.92-2.91-1.88-1-4.45-2.11-7.74-3.32-3.28-1.2-7.4-2.61-12.35-4.22-4.82-1.61-9.44-3.51-13.86-5.72s-8.34-4.92-11.75-8.14c-3.42-3.21-6.13-7.06-8.14-11.55-2.01-4.49-3.01-9.88-3.01-16.17,0-8.84,1.81-16.34,5.42-22.5,3.62-6.16,8.27-11.22,13.96-15.17,5.69-3.95,12.09-6.8,19.18-8.54,7.1-1.74,14.13-2.61,21.1-2.61,9.38,0,18.92,1.81,28.63,5.42,9.71,3.62,18.25,8.84,25.61,15.67l-29.73,30.33c-3.21-4.02-7.17-7.06-11.85-9.14-4.69-2.08-8.91-3.11-12.66-3.11-3.48,0-6.3.5-8.44,1.51-2.14,1.01-3.21,2.65-3.21,4.92,0,2.14,1.1,3.75,3.31,4.82,2.21,1.07,5.79,2.41,10.75,4.02,5.09,1.61,10.45,3.48,16.07,5.62,5.62,2.14,10.82,4.92,15.57,8.34,4.75,3.41,8.67,7.6,11.75,12.56,3.08,4.96,4.62,11.12,4.62,18.48,0,8.57-1.71,16.04-5.12,22.4-3.42,6.36-7.9,11.65-13.46,15.87-5.56,4.22-11.82,7.37-18.78,9.44-6.97,2.08-14.06,3.11-21.3,3.11h0Z"/>
  <path class="cls-1" d="M203.7,154.69c-5.22,0-10.38-.97-15.47-2.91-5.09-1.94-9.24-4.65-12.46-8.14h-.4v56.45l-46.01-15.7V40.97h43.6v15.88h.4c3.88-4.42,8.57-7.77,14.06-10.04,5.49-2.28,10.85-3.42,16.07-3.42,7.9,0,14.87,1.61,20.89,4.82,6.03,3.21,11.05,7.43,15.07,12.66,4.02,5.22,7.07,11.12,9.14,17.68,2.08,6.56,3.11,13.26,3.11,20.09s-1.04,13.79-3.11,20.49c-2.08,6.7-5.12,12.69-9.14,17.98-4.02,5.29-9.01,9.54-14.97,12.76-5.96,3.21-12.89,4.82-20.79,4.82h0ZM208.72,98.64c0-4.69-1.47-8.77-4.42-12.26-2.95-3.48-7.23-5.22-12.86-5.22s-9.88,1.74-13.16,5.22c-3.28,3.48-4.92,7.57-4.92,12.26,0,4.95,1.64,9.17,4.92,12.66,3.28,3.48,7.67,5.22,13.16,5.22s9.91-1.71,12.86-5.12c2.95-3.41,4.42-7.67,4.42-12.76h0Z"/>
  <path class="cls-1" d="M320.01,108.08c-6.83,0-12.32.74-16.47,2.21-4.15,1.47-6.23,4.22-6.23,8.24,0,1.47.34,2.71,1.01,3.72.67,1,1.54,1.84,2.61,2.51,1.07.67,2.24,1.17,3.52,1.51,1.27.33,2.44.5,3.52.5,4.42,0,7.97-1.41,10.65-4.22,2.68-2.81,4.02-6.43,4.02-10.85v-3.62h-2.61ZM319.61,84.78c0-3.21-1.1-5.59-3.31-7.13-2.21-1.54-5.12-2.31-8.74-2.31-4.29,0-8.34.9-12.15,2.71-3.82,1.81-7.2,3.92-10.15,6.33l-23.1-22.9c6.43-6.16,14.06-10.92,22.9-14.26,8.84-3.35,17.95-5.02,27.32-5.02,10.04,0,18.35,1.41,24.91,4.22,6.56,2.81,11.75,6.7,15.57,11.65,3.82,4.96,6.5,10.71,8.04,17.28,1.54,6.56,2.31,13.53,2.31,20.89v55.65h-41.99v-8.44h-.4c-2.68,4.02-6.5,6.9-11.45,8.64-4.95,1.74-9.78,2.61-14.47,2.61-4.15,0-8.4-.6-12.76-1.81-4.35-1.21-8.3-3.15-11.85-5.83-3.55-2.68-6.46-6.16-8.74-10.45-2.28-4.29-3.42-9.58-3.42-15.87,0-7.37,1.91-13.36,5.73-17.98,3.82-4.62,8.67-8.24,14.57-10.85s12.49-4.39,19.79-5.32c7.3-.94,14.43-1.41,21.4-1.41v-.4h0Z"/>
  <path class="cls-1" d="M377.06,51.54l44.6-10.56v17.29h.4c2.28-4.29,5.66-7.84,10.15-10.65,4.49-2.81,9.74-4.22,15.77-4.22,3.62,0,6.56.34,8.84,1.01l-.21,39.9c-1.47-.4-6.52-1.22-8.33-1.42-1.81-.2-3.45-.3-4.92-.3-6.03,0-10.85,1.74-14.46,5.22-3.62,3.48-5.42,7.77-5.42,12.86v51.23h-46.41V51.54h0Z"/>
  <polygon class="cls-1" points="512.86 105.87 512.86 151.88 466.46 151.88 466.46 22.45 512.86 0 512.86 86.59 513.47 86.59 513.47 105.87 512.86 105.87 512.86 105.87"/>
  <polygon class="cls-2" points="538.18 151.88 502.31 96.17 538.58 46.21 592.42 46.21 558.27 93.82 592.22 151.88 538.18 151.88 538.18 151.88"/>
</svg>